<?xml version="1.0" encoding="utf-8"?>
<!-- Generator: Adobe Illustrator 18.0.0, SVG Export Plug-In . SVG Version: 6.00 Build 0)  -->
<!DOCTYPE svg PUBLIC "-//W3C//DTD SVG 1.1//EN" "http://www.w3.org/Graphics/SVG/1.1/DTD/svg11.dtd">
<svg version="1.1" id="Layer_1" xmlns="http://www.w3.org/2000/svg" xmlns:xlink="http://www.w3.org/1999/xlink" x="0px" y="0px"
	 viewBox="0 0 841.9 595.3" enable-background="new 0 0 841.9 595.3" xml:space="preserve">
<g>
	<polygon fill="#018248" points="566.9,145.8 566.9,455.1 464.9,455.1 464.9,349.7 192.2,349.7 192.2,587.4 87.6,587.4 87.6,8.9 
		192.2,8.9 192.2,247.2 464.9,247.2 464.9,145.8 	"/>
	<polygon fill="#17A84F" points="327.3,112.8 327.3,216.8 221.4,216.8 221.4,8.9 704.6,8.9 704.6,112.8 	"/>
	<path fill="#026736" d="M605.3,349.7V247.2c0,0,143.4-3.6,148.3,132.4c2,55,0,82.1,0,82.1s-5.3,111.2-132.4,125.8
		c-127.4,0-399.8,0-399.8,0V485.5H604c0,0,44,3.5,44.4-32.2c0.3-25.2,0-69.1,0-69.1S647.9,345.7,605.3,349.7z"/>
</g>
<g>
	<text transform="matrix(1 0 0 1 235.5623 561.6982)" fill="#FFFFFF" font-family="'Code-Pro'" font-size="76.9372">E-Powered</text>
</g>
</svg>
