<?xml version="1.0" encoding="UTF-8" standalone="no"?>
<svg width="570px" height="570px" viewBox="0 0 570 570" version="1.1" xmlns="http://www.w3.org/2000/svg" xmlns:xlink="http://www.w3.org/1999/xlink">
    <defs></defs>
    <g id="Page-1" stroke="none" stroke-width="1" fill="none" fill-rule="evenodd">
        <rect id="Rectangle-168-Copy-3" fill="#DDDDDD" x="0" y="0" width="570" height="570"></rect>
        <path d="M186.787317,145.549454 C188.569743,167.211337 192.970107,195.407934 192.970107,195.407934 C192.970107,195.407934 184.25293,200.135174 184.25293,219.155363 C187.288625,266.900488 203.274757,246.295283 206.561104,267.234176 C214.470619,317.676608 232.545531,308.694852 232.545531,336.224074 C232.545531,382.078303 213.607256,403.517727 154.480848,428.933594 C95.1594876,454.460691 34,486.578116 34,542.192705 L34,570 L535.307275,570 L535.307275,542.192705 C535.307275,486.578116 474.119937,454.460691 414.770726,428.961402 C355.644318,403.545534 336.761744,382.133917 336.761744,336.251881 C336.761744,308.722659 354.780955,317.704416 362.71832,267.261983 C366.032518,246.32309 381.9908,266.928296 385.082195,219.183171 C385.082195,200.162981 376.337168,195.435741 376.337168,195.435741 C376.337168,195.435741 380.737532,167.239144 382.492107,145.577262 C383.951866,127.257624 375.84987,92.1765744 344.882859,71.4776684 C337.447041,66.5074344 336.252063,66.5015051 325.995366,63.6209378 C324.051885,57.8044471 309.611473,47.5853113 298.5574,47.0612829 C277.172551,46.0475146 243.197378,57.7267894 221.293968,73.5285612 C192.997957,94.550876 185.394797,127.836208 186.787317,145.549454 Z" id="Shape-Copy-4" fill="#F5F5F5"></path>
    </g>
</svg>